<svg height="512" viewBox="0 0 64 64" width="512" xmlns="http://www.w3.org/2000/svg"><g id="Fast_Charging" data-name="Fast Charging"><path d="m61 32a18 18 0 0 1 -18 18h-27a3 3 0 0 1 0-6h-6a3 3 0 0 1 0-6h16.03l.02.02a17.72 17.72 0 0 1 -.79-3.09v.07h-7.26a3 3 0 0 1 0-6h7.25v.13a17.309 17.309 0 0 1 .8-3.15l-.02.02h-16.03a3 3 0 0 1 0-6h6a3 3 0 0 1 0-6h27a18 18 0 0 1 18 18z" fill="#46f8ff"/><path d="m61 32a18 18 0 0 1 -18 18h-27a3 3 0 0 1 -3-3 2.772 2.772 0 0 1 .18-1h25.82a18 18 0 0 0 18-18 17.788 17.788 0 0 0 -3.44-10.56 17.929 17.929 0 0 1 7.44 14.56z" fill="#00d7df"/><circle cx="43" cy="32" fill="#57a4ff" r="12"/><path d="m55 32a12 12 0 0 1 -22.25 6.25 12.008 12.008 0 0 0 16.5-16.5 12 12 0 0 1 5.75 10.25z" fill="#2488ff"/><path d="m47 31-4 9v-7h-4l4-9v7z" fill="#ffde55"/><path d="m11 32a3 3 0 0 1 -3 3h-2a3 3 0 0 1 0-6h2a3 3 0 0 1 3 3z" fill="#ffde55"/><path d="m11 32a3 3 0 0 1 -3 3h-2a2.772 2.772 0 0 1 -1-.18 2.838 2.838 0 0 0 1.12-.7 2.99 2.99 0 0 0 -1.12-4.94 2.772 2.772 0 0 1 1-.18h2a3 3 0 0 1 3 3z" fill="#ffcd00"/><path d="m8 36a4 4 0 0 0 0-8h-2a4 4 0 0 0 0 8zm-4-4a2 2 0 0 1 2-2h2a2 2 0 0 1 0 4h-2a2 2 0 0 1 -2-2z"/><path d="m43 13h-27a3.994 3.994 0 0 0 -3.46 6h-2.54a4 4 0 0 0 0 8h14.69c-.09.33-.17.66-.24 1h-6.45a4 4 0 0 0 0 8h6.44c.08.34.16.67.25 1h-14.69a4 4 0 1 0 0 8h2.54a3.995 3.995 0 0 0 3.46 6h27a19 19 0 0 0 0-38zm0 36h-27a2.015 2.015 0 0 1 -2-2 2.006 2.006 0 0 1 2-2 1 1 0 0 0 0-2h-6a2.015 2.015 0 0 1 -2-2 2.006 2.006 0 0 1 2-2h15.88a.984.984 0 0 0 .77-.18 1.006 1.006 0 0 0 .34-1.14 17 17 0 0 1 -.74-2.91.983.983 0 0 0 -1.07-.8c-.06.01-.12.02-.17.03h-7.01a2.006 2.006 0 0 1 -2-2 2.015 2.015 0 0 1 2-2h6.76a1.1 1.1 0 0 0 .41.13 1.008 1.008 0 0 0 1.07-.84 17.222 17.222 0 0 1 .75-2.97 1 1 0 0 0 -1.03-1.32h-15.96a2.006 2.006 0 0 1 -2-2 2.015 2.015 0 0 1 2-2h6a1 1 0 0 0 0-2 2.006 2.006 0 0 1 -2-2 2.015 2.015 0 0 1 2-2h27a17 17 0 0 1 0 34z"/><path d="m43 19a13 13 0 1 0 13 13 13.012 13.012 0 0 0 -13-13zm0 24a11 11 0 1 1 11-11 11.007 11.007 0 0 1 -11 11z"/><path d="m47.84 30.46a1 1 0 0 0 -.84-.46h-3v-6a1 1 0 0 0 -.79-.98.991.991 0 0 0 -1.12.57l-4 9a1 1 0 0 0 .91 1.41h3v6a1 1 0 0 0 .79.98 1.492 1.492 0 0 0 .21.02 1 1 0 0 0 .91-.59l4-9a1 1 0 0 0 -.07-.95zm-3.84 4.83v-2.29a1 1 0 0 0 -1-1h-2.46l1.46-3.29v2.29a1 1 0 0 0 1 1h2.46z"/></g></svg>