<svg id="Regular" height="512" viewBox="0 0 24 24" width="512" xmlns="http://www.w3.org/2000/svg"><path d="m.621 18.017c.384.014 3.806-8.068 3.168-11.524v-2.468c0-1.774 1.421-3.218 3.167-3.218h2.726c.991 0 1.938.481 2.533 1.287l.409.554c.429.582 1.113.928 1.828.928h.682c.995 0 1.804.822 1.804 1.833v.529c0 .699-.382 1.327-.997 1.64l-3.577 1.817c-.425.216-.62.737-.444 1.186l2.338 7.486z" fill="#cfd8dc"/><path d="m6.558 9.193c-.411 0-.788-.24-.959-.613l-2.052-4.343v-.419c0-1.66 1.351-3.01 3.011-3.01h1.742l-.679 7.416c-.042.541-.509.969-1.063.969z" fill="#90a4ae"/><path d="m17.104 23.177c-.549-.408-5.354-4.071-5.354-7.178 0-1.824 1.488-3.307 3.317-3.307.941 0 1.817.394 2.433 1.056.616-.662 1.492-1.056 2.433-1.056 1.829 0 3.317 1.483 3.317 3.307 0 3.107-4.806 6.77-5.354 7.178-.235.174-.557.174-.792 0z" fill="#00bcd4"/><path d="m.75 18c-.126 0-.255-.032-.372-.099-.36-.206-.484-.664-.278-1.023 1.978-3.456 2.9-6.779 2.9-10.458v-2.67c0-2.068 1.682-3.75 3.75-3.75h3c1.174 0 2.296.561 3 1.5l.45.6c.423.564 1.095.9 1.8.9h.75c1.241 0 2.25 1.009 2.25 2.25v.57c0 .864-.479 1.636-1.25 2.014l-3.935 1.967c-.229.117-.384.34-.409.593-.04.413-.402.722-.82.672-.412-.041-.713-.408-.672-.82.076-.764.534-1.431 1.225-1.784l3.946-1.973c.258-.126.415-.382.415-.669v-.57c0-.414-.336-.75-.75-.75h-.75c-1.174 0-2.296-.561-3-1.5l-.45-.6c-.423-.564-1.096-.9-1.8-.9h-3c-1.241 0-2.25 1.009-2.25 2.25v2.67c0 3.952-.985 7.512-3.099 11.203-.139.242-.392.377-.651.377z"/><path d="m6.68 10c-.588 0-1.126-.344-1.371-.876l-2.234-4.628c-.18-.373-.024-.821.349-1.001.371-.182.821-.025 1.001.349l2.24 4.64.778-7.805c.039-.413.407-.716.817-.676.413.039.715.405.676.817l-.74 7.8c-.059.769-.725 1.38-1.516 1.38z"/><path d="m17.5 24c-.157 0-.314-.049-.447-.148-.62-.461-6.053-4.602-6.053-8.114 0-2.061 1.682-3.738 3.75-3.738 1.063 0 2.054.446 2.75 1.194.696-.748 1.687-1.194 2.75-1.194 2.068 0 3.75 1.677 3.75 3.738 0 3.512-5.433 7.653-6.053 8.114-.133.099-.29.148-.447.148zm-2.75-10.5c-1.241 0-2.25 1.004-2.25 2.238 0 2.138 3.276 5.19 5 6.564 1.724-1.374 5-4.426 5-6.564 0-1.234-1.009-2.238-2.25-2.238-.897 0-1.707.527-2.063 1.342-.238.548-1.137.548-1.375 0-.355-.815-1.165-1.342-2.062-1.342z"/></svg>